<?xml version="1.0" encoding="utf-8"?>
<!-- Generator: Adobe Illustrator 23.0.3, SVG Export Plug-In . SVG Version: 6.00 Build 0)  -->
<svg version="1.1" id="Ebene_1" xmlns="http://www.w3.org/2000/svg" xmlns:xlink="http://www.w3.org/1999/xlink" x="0px" y="0px"
	 viewBox="0 0 662.19 102.09" style="enable-background:new 0 0 662.19 102.09;" xml:space="preserve">
<style type="text/css">
	.st0{clip-path:url(#SVGID_2_);fill:#1F5533;}
</style>
<g>
	<defs>
		<rect id="SVGID_1_" width="662.19" height="102.09"/>
	</defs>
	<clipPath id="SVGID_2_">
		<use xlink:href="#SVGID_1_"  style="overflow:visible;"/>
	</clipPath>
	<path class="st0" d="M14.31,53h-0.14l-3.54,18.28h7.23L14.31,53z M11.27,38.48h6.02l11.27,50.45h-7.23L19.2,78.09H9.35L7.23,88.93
		H0L11.27,38.48z M32.57,38.48h7.23V81.7h14.31v7.23H32.57V38.48z M58.2,38.48h7.23V81.7h14.31v7.23H58.2V38.48z M81.93,50.38
		c0-8.22,6.24-12.33,12.12-12.33c5.88,0,12.12,4.11,12.12,12.33v2.55h-7.23v-2.55c0-3.47-2.27-5.1-4.89-5.1
		c-2.62,0-4.89,1.63-4.89,5.1v26.64c0,3.47,2.27,5.1,4.89,5.1c2.62,0,4.89-1.63,4.89-5.1v-9.49H93.2v-6.38h12.97v15.87
		c0,8.22-6.24,12.33-12.12,12.33c-5.88,0-12.12-4.11-12.12-12.33V50.38z M124.42,53h-0.14l-3.54,18.28h7.23L124.42,53z
		 M121.38,38.48h6.02l11.26,50.45h-7.23l-2.13-10.84h-9.85l-2.13,10.84h-7.23L121.38,38.48z M115.49,28.13h6.38v7.23h-6.38V28.13z
		 M126.97,28.13h6.38v7.23h-6.38V28.13z M165.92,77.59c0,6.59-5.24,11.76-11.69,11.76c-6.45,0-11.69-5.17-11.69-11.76V38.48h7.23
		v38.4c0,3.54,1.91,5.24,4.46,5.24c2.55,0,4.46-1.7,4.46-5.24v-38.4h7.23V77.59z M173.06,38.48h21.54v6.8h-14.31v14.81h12.47v6.8
		h-12.47V81.7h14.31v7.23h-21.54V38.48z M206.83,61.01h4.11c5.03,0,5.81-2.83,5.81-7.87c0-5.1-0.85-7.86-6.16-7.86h-3.76V61.01z
		 M199.61,38.48h11.62c8.57,0,12.75,5.03,12.75,14.81c0,5.81-1.63,10.06-6.24,12.61l7.79,23.03h-7.65l-6.73-21.54h-4.32v21.54h-7.23
		V38.48z M401.9,88.93h7.23V67.39h12.47v-6.8h-12.47V45.28h14.31v-6.8H401.9V88.93z M427.97,88.93h21.54V81.7H435.2V66.89h12.47
		v-6.8H435.2V45.28h14.31v-6.8h-21.54V88.93z M478.13,49.46c0-5.6-4.82-11.41-12.05-11.41c-8.29,0-12.4,6.16-12.4,13.82
		c0,6.31,1.63,10.42,7.86,12.97l5.17,2.12c3.54,1.42,4.18,2.27,4.18,7.65c0,4.6-0.35,7.51-5.24,7.51c-3.68,0-5.1-2.55-5.1-5.17
		v-2.27h-7.23v2.69c0,6.8,5.32,11.97,12.33,11.97c9.35,0,12.47-6.31,12.47-14.81c0-7.37-1.2-11.41-7.58-13.82l-5.52-2.2
		c-3.76-1.49-4.11-2.83-4.11-6.73c0-3.33,0.92-6.52,4.89-6.52c3.68,0,5.1,2.76,5.1,6.09V53h7.23V49.46z M488.19,88.93h7.23V45.28
		h8.36v-6.8h-23.95v6.8h8.36V88.93z M546.43,38.48h-7.65l-3.47,32.8h-0.14l-5.88-32.8h-5.53l-5.67,32.02h-0.14l-3.62-32.02h-7.65
		l7.51,50.45h6.8l5.46-32.73h0.14l5.53,32.73h6.8L546.43,38.48z M550.94,77.02c0,8.22,6.24,12.33,12.12,12.33
		c5.88,0,12.12-4.11,12.12-12.33V50.38c0-8.22-6.24-12.33-12.12-12.33c-5.88,0-12.12,4.11-12.12,12.33V77.02z M558.17,50.38
		c0-3.47,2.27-5.1,4.89-5.1c2.62,0,4.89,1.63,4.89,5.1v26.64c0,3.47-2.27,5.1-4.89,5.1c-2.62,0-4.89-1.63-4.89-5.1V50.38z
		 M605.01,74.54h-7.23v2.48c0,3.97-2.55,5.1-4.53,5.1c-3.26,0-4.39-2.27-4.39-5.17V51.16c0-3.4,0.85-5.88,4.46-5.88
		c2.76,0,4.46,2.41,4.46,5.24v2.41h7.23V50.1c0-7.01-4.96-12.04-11.62-12.04c-7.01,0-11.76,5.03-11.76,11.62v27.78
		c0,9.21,6.38,11.9,11.9,11.9c6.45,0,11.48-5.46,11.48-11.69V74.54z M610.26,88.93h7.22V66.47h8.93v22.46h7.23V38.48h-7.23v21.61
		h-8.93V38.48h-7.22V88.93z M640.65,88.93h21.54V81.7h-14.31V66.89h12.47v-6.8h-12.47V45.28h14.31v-6.8h-21.54V88.93z M337.92,1.06
		c-0.22-0.19-0.12-0.9,0.36-1c1.16-0.23,1.97,0.29,2.92,0.3c0.95,0.01,2.45-0.02,3.75,0.42c1.3,0.43,2.94-0.72,4.2,0.17
		c-0.5,1.54-2.24,3.42-2.59,4.08c-0.35,0.66-1.21,1.71-1.54,2.75c0.17,0.27,0.49,0.23,1.06,0.37c0.35,0.09,0.88,0.29,1.28,0.55
		c0.86,0.57,1.62,0.91,1.89,2.19c0.04,0.18,0.02,0.46-0.1,0.34c-0.94-0.9-2.11-1.46-3.27-1.83c-1.86-0.6-3.91-0.51-6.05-0.41
		c-0.22-0.11-0.05-0.33,0.05-0.38c0.55-0.39,1.59-0.55,1.71-0.88c-0.1-0.44-0.7-1.49-0.88-2.04C340.13,3.9,338.5,1.58,337.92,1.06
		 M318.81,13.73c-0.25,0.23-0.05,0.55-0.05,0.55c0.61,1.27,0.15,2.96,1.16,4.08c1.39-1.24,2.48-2.81,3.14-3.91
		c0,0-0.35-1.91-0.46-2.32c-0.11-0.41-0.25-1.01-0.72-1.41C320.73,11.31,319.07,13.5,318.81,13.73 M309.05,3.69
		c3.42,1.6,6.91,4.17,8.72,8.22c0.15,0.33,0.37,1.22,0.88,0.88c0.51-0.34,1.93-1.93,2.85-3.13c-0.77-2.04-2.74-4.41-4.17-5.53
		c-1.87-1.47-5.54-2.79-6.8-2.08C310.2,2.24,308.77,2.76,309.05,3.69 M294.9,30.17c0.04-0.14,0.53-5.09,0.77-7.61
		c-0.49-2.1-2-4.59-2.12-4.89c-0.32-0.79-0.53-0.68-0.63-0.57c-0.36,0.35-0.17,1.98-0.33,3.03c0.5,3.42,0.78,7,1.88,10.09
		C294.54,30.44,294.87,30.3,294.9,30.17 M322.83,15.91c-1.12,1.61-2.14,2.4-2.8,3.78c0.88,2.92,0.08,6.55,0.94,9.15
		c0.06,0.17,0.14,0.54,0.38,0.44c0.25-0.1,2.46-3.22,2.46-3.22s0-1.59,0.08-2.01c0.37-2.09,0.02-6.2-0.11-7.34
		C323.7,16.03,323.2,15.38,322.83,15.91 M296.06,20.13c0.55-0.83,0.49-2.01,0.55-2.92c-0.11-0.99-0.95-3.87-1.71-5.87
		c0,0-0.18-0.26-0.27-0.2c-0.96,0.58-1.11,2.7-1.43,4.14l0.72,1.71C294.46,18.09,295.07,19.35,296.06,20.13 M308.11,2.81
		c0.41-0.09,0.85-0.63,0.96-0.78c0.2-0.26-0.06-0.4-0.25-0.44c-0.19-0.03-0.87-0.14-1.34-0.14c-0.7,0-1.24,0.18-0.98,0.47
		C306.96,2.42,307.7,2.9,308.11,2.81 M307.7,4.07c-0.2,0.25-0.37,0.59-0.09,0.79c0.29,0.2,1.27,0.22,1.6-0.22
		C308.83,4.25,307.9,3.82,307.7,4.07 M297.07,15.55c0.44,0.81,2.05,6.51,2.05,6.51c1.49,4.85,2.81,9.82,4.63,14.56
		c0.27,0.55,0.36,1.44,0.64,1.66c0.29,0.22,0.72-0.02,0.89-0.3c0.55-0.77,0.65-1.62,0.17-2.52c-1.08-2.07-5.48-15.04-5.48-15.04
		s-1.24-3.38-1.57-5.13c-0.2-1.02-0.56-2.4,0.37-3c0.54,0.92,1.24,1.82,1.77,2.67c0.49,0.79,2.64,3.75,3.06,4.44
		c1.68,2.71,3.08,6.51,4.27,9.77c0.66,2.15,1.21,4.36,2.04,6.4c0.05,0.14,0.32,0.69,0.62,0.62c1.31-0.31,1.95-0.61,1.7-1.28
		c-2.15-4.3-4.25-8.66-5.63-13.29c-1.43-2.43-3.09-4.45-4.52-6.82c-0.77-1.1-1.44-2-2.29-3.52c-0.68-1.22,0.67-1.71,1.11-2.65
		c0,0,0.24-0.49,0.57-0.3c1.66,0.99,4.74,4.52,7.11,6.73c1.27,2.32,2.33,4.42,3.31,7.06c0.1,0.28,0.26,1.13,0.92,1.09
		c0.24-0.01,0.94-0.56,1.17-1.13c0.1-0.24-0.12-0.5-0.19-0.64c-0.07-0.13-2.45-4.4-2.45-4.4c-0.66-1.38-1.27-2.81-2.21-4.14
		c-1.87-1.65-4.89-4.09-5.43-4.67c-0.54-0.59-1.52-1.01-1.08-1.56c1.11-0.77,3.09-1.62,3.48-1.76c0.39-0.14,1.05-1.02,0.72-1.38
		c-0.33-0.36-1.51-1.11-1.99-1.43c-0.48-0.32-2.57,0.23-3.05,0.75c-0.56,0.59-1.41,1.03-2.26,1.38c-0.85,0.35-3.46,2.73-4.18,5.16
		c-0.39,1.32,0.59,2.96,0.94,3.81C296.66,14.03,296.7,14.87,297.07,15.55 M297.2,91.01c-0.11-0.42-0.3-0.43-0.44-0.44
		c-0.13-0.01-0.35,0.5-0.35,0.5c-0.83,2.1-1.69,3.69-2.46,5.79c0,0.22,0.16,0.44,0.38,0.44c0,0,3.6-0.02,3.92-0.06
		c0.31-0.04,0.77-0.14,0.66-0.44S297.32,91.43,297.2,91.01 M292.38,82.45c-3.26-0.04-7.84,0.08-8.7-0.04
		c-0.86-0.12-1.71-0.08-1.62,0.49c0.09,0.56-1.94,7.86-2.29,8.84c-0.35,0.98-0.83,3.38-3.11,3.68c-2.28,0.31-4.24-0.67-6.73-1.43
		c-2.73-0.84-6.17-1.5-8.45-0.49c-0.91,0.4-2.02,1.46-2.86,2.25c-0.08,0.08-0.12,0.01-0.11-0.06c0.14-1.64,0.77-3.53,1.43-5.13
		c-0.49-1.05-1.76-0.66-2.43-1.38c0,0-0.11-0.08,0.05-0.17c0.26-0.13,3.29-0.48,5.24-0.72l0.33,0.11c1.6-0.27,3.09-0.33,4.74-0.39
		c1.12-0.42,3.02-0.4,3.31-0.44c0.29-0.04,0.27-0.39,0.27-0.39s-0.17-2.81,0.11-4.3c0.11-0.28-0.01-0.63-0.38-0.63
		c-0.85,0-2.44,0.1-2.44-0.47c0-2.68,0.63-5.96,0.69-8.16c0.05-2.15,0.26-3.24,0.14-5.35c-0.02-0.31,0.32-0.39,0.16-0.66
		c-0.15-0.27-0.67,0.19-1.17,0.25c-0.5,0.06-0.99,0.01-1.53-0.25c-0.54-0.26-1.16-0.66-1.21-1.27c0.94-0.22,2.26,0.6,2.94-0.75
		c0.26-0.51,0.53-1.13,0.31-1.79c-1.66-3.64-4.54-6.39-6.8-9.67c-1.52-2.21-2.85-4.2-3.03-5.6c-0.09-0.66-0.2-2.39,0.05-3.78
		c0.28-1.53,0.74-2.61,1.43-4.24c2.18-5.15,2.78-8.05,5.59-13.84c0.88-1.76,2.65-2.81,4.3-3.47c0.66-0.22,1.32-0.39,2.1-0.44
		c0.55-0.55,0.22-1.55,0.11-2.26c-0.66-1.05-1.88-1.43-2.81-2.32c-1.05-0.83-1.55-2.19-1.66-3.45c1.54-0.54,3.99-1.61,4.36-2.01
		c-0.2-0.11-0.94-0.16-1.66,0.18c-0.77,0.36-2.59,1.04-4.29,1.59c-0.4,1.05-0.12,1.69,0.64,3.1c0.52,0.97,0.72,1.36,0.85,1.67
		c0.32,0.76-0.3,1-0.72,0.97c-1.18-0.08-2.01,0.4-2.81,0.22c-0.2-0.05-0.17-0.33-0.17-0.33c0.33-1.65,0.81-3.65,0.7-5.22
		c0,0-0.46-0.15-1.05-0.24c-0.38-0.06-0.96-0.04-1.31-0.06c-0.35-0.01-0.3-0.84-0.27-1.21c0.03-0.37,0.17-0.46,0.38-0.44
		c0.22,0.02,1.06,0.33,1.85,0.46c0.78,0.12,2.57,0.48,3.56-0.24c0.61-0.38,0.5-0.95,0.77-1.44c0.38-1.05,1.34-2.1,0.94-3.26
		c-0.41-1.17-1.88-2.19-3.36-3.6c-0.19-0.18,0.4-0.39,0.85-0.48c0.44-0.08,2.1,0.01,2.82-0.87c0.34-0.4,0.97,0.15,0.89,0.43
		c-0.08,0.27-0.52,3.46,1.1,4.57c2.08,1.43,4.28,0.08,5.61-0.41c0.38-0.14,1.32-0.4,1.96-0.9c0.65-0.5,0.95-0.85,1.29-1.04
		c0.61-0.32,0.03,1.78-0.64,2.67c-0.67,0.89-1.77,1.4-2.54,2.06c0.27,0.61,0.86,0.53,1.6,1.1c1.06,0.82,1.78,2.02,1.55,3.86
		c-0.23,1.85-3.99,2.52-5.24,3.14c-0.43,0.22-0.72-0.11-0.94,0.17c0.66,0.5,1.55-0.06,2.32,0.17c-0.22,0.77,0.27,2.03,0.4,2.21
		c0.14,0.2,0.48,0.12,0.64,0.11c0.16-0.02,1.83-0.15,2.61-0.48c0.81-0.33,0.65,0.08,0.65,0.08c-0.11,1.05-0.22,2.32-0.05,3.42
		c0.61,0.22,1.64,0.06,2.34-0.05c0.71-0.11,1.89-0.64,1.96,0.38c0.24,3.75,0.87,7.27,1.11,10.61c0.18,2.53,0.76,4.91,0.93,6.71
		c0.08,0.78,0.14,1.75,0.55,1.77c0.41,0.02,3.15,0,3.36,0c0.22,0,0.29-0.16,0.28-0.28c-0.01-0.11-0.11-4.91-0.11-7.39
		c0.05-3.97-0.17-7.76,0.05-11.79c0,0,0-0.27,0.11-0.18c0.27,0.21,0.14,0.61,0.29,1.06c0.23,0.67,0.43,1.07,0.64,1.75
		c0.21,0.68,0.03,1.91,0.61,3.07c0.81,1.64,0.93,5.34,0.79,6.63c-0.2,1.79,0.02,5.7,0.1,6.24c0.11,0.69,0.47,1.05,0.86,1.15
		c0.8,0.21,1.79-0.14,2.12,0.62c0.52,1.19-2.71,0.98-1.93,2.81c0.1,0.24,0.19,0.54-0.06,0.55c-1.61,0.07-0.2,2.28-0.9,2.75
		c-0.23,0.16-1.82,0.46-2.19-0.05c-0.37-0.51,0.25-1.78-0.49-2.1c-0.23-0.1-2.14-0.19-2.52-0.18c-0.38,0.01-0.63,0.19-0.55,0.43
		c0.03,0.1,0.65,2.77,1.24,4.88c0.11,0.38,0.98,2.44,1.09,2.72c1.63,4.14,2.86,5.59,4.43,7.77c1.57,2.18,4.77,5.77,7.66,9.04
		c0.43,0.49,0.21,4.43,0.44,7.38c0.04,0.55-0.89,0.47-1.39,0.53c-0.5,0.06-3.54,0.27-3.98,0.22c-0.44-0.04-1.54,0.08-1.63-0.74
		c-0.37-3.16-1.6-6.82-2.31-9.11c-0.71-2.29-0.72-3.45-0.99-3.7c-0.27-0.25-0.59,0.12-0.59,0.28c0.05,0.99,0.52,1.98,0.67,2.79
		c0.15,0.81,1.29,4.73,1.99,7.81c0.15,0.66,0.63,2.04,0.62,2.7c-2.33-0.23-4.86-1.27-7.23-1.99c-2.04-0.72-4.23-1.46-6.12-2.21
		c0.1,0.26,0.14,0.94,0.61,1.1c0.55,0.19,4.13,1.52,6.34,2.28c2.21,0.76,4.04,1.01,4.14,1.24
		C294.15,82.44,293.49,82.47,292.38,82.45 M269.72,56.37c-0.05-5.3-0.16-10.48-0.88-15.5l-0.22-0.72c-1.66,2.7-2.81,5.63-3.86,8.6
		c1.32,2.76,2.92,5.41,4.85,7.83C269.67,56.53,269.72,56.48,269.72,56.37 M282.3,47.09c0.07,0.51,0.08,1,0.17,1.45
		c0.03,0.21,0.07,0.41,0.14,0.6c0.37,1.17,0.68,2.82,0.93,4.14c0.16,0.85,0.29,1.53,0.39,1.86c0.03,0.11,0.06,0.22,0.09,0.33
		c0,0.01,0.01,0.03,0.01,0.04c0,0.01,0,0.01,0,0.02c0.09,0.57,0.07,1.08,0.17,1.62c0.01,0.05,0.02,0.11,0.04,0.19v0.01
		c0.13,0.72,1.22,6.04,1.77,8.67c0.01,0.07,0.03,0.15,0.04,0.22c0,0.01,0,0.02,0,0.03c0.07,0.54,0.03,0.89,0.1,1.08
		c0.02,0.25,0.09,0.43,0.33,0.48c0.13,0.02,0.36,0.05,0.6,0.05c0.4,0,0.66-0.07,0.78-0.22c0.07-0.08,0.09-0.18,0.07-0.29
		c-0.15-0.83-0.62-3.34-0.84-4.1c-0.08-0.26-0.22-0.7-0.37-1.17c-0.27-0.83-0.58-1.77-0.66-2.18c-0.04-0.19-0.09-0.52-0.16-0.9
		c-0.14-0.88-0.35-2.09-0.51-2.64c-0.43-1.48-0.79-3.28-1.17-5.19c-0.42-2.09-0.85-4.24-1.42-6.22c-0.26-1.07-0.46-2.54-0.64-3.84
		c-0.17-1.26-0.32-2.34-0.48-2.75c-0.18-0.49-0.27-1.04-0.36-1.64c-0.05-0.34-0.11-0.69-0.18-1.04c-0.1-0.45-0.2-1.21-0.34-2.17
		c-0.14-1.01-0.32-2.28-0.54-3.62c-0.01-0.06-0.05-0.11-0.11-0.13l-0.17-0.05c-0.05-0.02-0.1-0.01-0.14,0.02l-0.11-0.03
		c0.11,2.1,0.44,4.3,0.72,6.34c0.23,2.43,0.74,3.95,0.96,6.44c0.07,0.67,0.21,1.7,0.38,2.59c0.11,0.59,0.23,1.14,0.36,1.52
		C282.23,46.77,282.27,46.93,282.3,47.09 M308.55,98.12c-0.8-0.45-2.1-1.82-3.31-2.32c-0.33-0.89-0.32-1.06-0.44-2.81
		c-0.12-1.75-0.4-4.89-0.61-6.67c-0.2-1.79,0.32-3.74-0.48-3.99c-0.89-0.28-5.59,0.37-6.09,0.32c-0.5-0.05-1.21,0-1.54,0.5
		c0.76,2.43,1.11,4.5,1.8,6.93c0.27,0.94,0.65,2.13,0.96,2.75c0.31,0.62,0.59,2.47,1.02,3.66c0.66,1.87,2.09,5.24,2.18,5.49
		c0.1,0.26,0.35,0,0.48-0.23c0.44-0.75-0.43-1.7,0.29-2.2c1.93-0.17,5.9-0.15,6.23-0.17c0.33-0.01,0.7,0.03,0.61-0.28
		C309.56,98.81,309.15,98.46,308.55,98.12 M365.81,98.57c0,0.15,0,0.49-0.22,0.49c-0.21-0.01-8.63-1.62-8.88-1.49
		c-0.25,0.13-1.21-0.08-1.55,0c-0.34,0.08-0.99-0.28-1.32,0.06c0.11,0.88-0.73,1.32-0.88,2.1c-0.15,0.77-0.33,0.96-0.66,2.21
		c-1.39,0.16-1.98,0.11-1.98,0.11c-0.55-0.66-0.06-1.76-0.61-2.37c-0.61,0.66-0.78,1.62-1.16,2.32c-0.88,0.11-1.87,0.06-1.87,0.06
		c-0.19-0.47-0.23-1.03-0.22-1.56c0-0.4-0.12-0.5-0.22-1.08c-0.1-0.58,0.06-1.84,0.08-1.97c0.02-0.13-0.01-0.28-0.19-0.29
		c-2.56-0.15-6.89-0.72-10.37-0.44c-4.47,0.22-9.07-0.36-10.88-0.33c-1.81,0.03-3.44,0.04-6.67,0.11c-2.4,0.05-5.77-0.35-7.84-0.1
		c-2.07,0.25-3.49-0.91-3.88-2.27c-0.4-1.37-0.59-5.02-0.7-7.2c-0.05-1.09-0.64-6.59-0.81-8.85c1.13-3.67,2.49-7.44,3.86-11.03
		c0.92-2.4,2-5,2.39-7.13c0.19-1.06,0.53-1.3,0.6-1.7c0.07-0.41,0.48-0.37,0.65-1.36c0.17-0.99,0.67-2,1.11-3.16
		c2.15-0.72,4.49-1,5.78-1.29c1.33-0.3,1.8-0.71,3.1-0.77c1.3-0.06,10.6-2.42,15.01-3.4c0.64-0.14,1.38-0.44,1.87-0.94
		c-0.38-1.71-0.36-4.34-0.8-5.8c-0.33-1.09-0.37-3.35-0.89-5.89c-0.37-1.83-0.82-4.45-1.07-5.18c-0.11-0.3,0.14-0.65,0.44-0.61
		c0.57,0.08,3.84-0.14,4.35,0.33c0.51,0.47,0.02,1.92,0.23,2.97c0.24,1.2,0.04,1.78,0.16,3.36c0.37,5.08-0.92,14.12-0.82,14.29
		c0.1,0.18,0.87-0.3,1.15-0.47c0,0,0.13-3.05,0.19-3.65c0.07-0.72,0.31-1.21,0.26-1.5c-0.07-0.33-0.18-0.53-0.17-0.92
		c0-0.48,0.17-1.18,0.18-1.45c0.07-1.44-0.03-5.56,0.05-6.29c0.09-0.74-0.22-0.83-0.22-1.21c0-0.38,0.08-2.07,0.04-3.04
		c-0.02-0.58-0.21-1.12-0.13-1.53c0.21-1.09,1.35-0.79,2.39-0.53c0.58,0.15,1.02-0.01,1.2-0.02c0.21-0.01,0.79,0.09,1.23-0.1
		c0.52-0.22,1.03-0.26,1.27,0.29c0.04,0.09-2.23,8.95-3.09,12.8c-0.13,0.59,0.45,0.9,0.61,1.38c0.16,0.48-0.07,2.31,0.8,2.73
		c1.04,0.51,2.08-0.74,3.49-2.2c1.84-1.92,3.87-4.17,3.87-4.17c-0.11-1.32-1.23-2.49-1.54-3.53c-0.31-1.04-1.42-2.85-2.02-4.18
		c-0.39-0.86-0.51-1.7-0.72-1.97c-0.54-0.71-0.62-1.46-1.45-1.85c-1.02,0.08-2.21,0.09-3.21,0.05c-1.1-0.05-2.92-0.23-3.18-0.22
		c-0.26,0.01-2.04,0.2-2.64,0.13c-0.61-0.07-2.43,0.03-2.72-0.16c-0.29-0.19-0.99-0.01-0.82,0.21c0.61,0.77-0.46,2.26-0.58,3.15
		c-0.12,0.89-1.35,6.22-1.35,6.22c-0.36,2.12-1.15,4.16-1.71,6.9c-0.03,0.15-0.11,0.29-0.44,0.28c-0.33-0.02-3.25-0.08-4.08-0.06
		c-0.82,0.02-2.43-0.33-3.64,0c-0.33,0.61-0.18,1.61-0.38,2.15c-0.2,0.54-0.97,0.19-1.3,0.34c-0.66,0.29-1.01-0.28-0.99-0.62
		c0.12-2.09,0.1-1.47,0-2.01c-0.45-0.45-2.37,0.06-2.45-0.85c-0.05-0.58-0.09-0.89-0.5-0.94c-0.41-0.05-0.72-0.11-0.88-0.5
		c-0.16-0.38-0.17-1.36,0.44-1.43c0.61-0.07,2.73-0.17,2.99-0.19c0.26-0.02,0.43-0.04,0.48-0.25c0.14-1.72-0.38-4.92-0.43-5.56
		c-0.16-1.94-0.06-3.3,0.38-5.25c1.39-1.5,1.95-3,2.2-3.27c0.29-0.3,0.39-0.1,0.44,0.24c0.14,0.95,0.02,3.76,0.01,6.47
		c0,1.44,0.11,2.83,0.1,3.95c-0.01,0.78-0.07,2.83-0.06,3.2c0.02,0.37,0.33,0.53,0.66,0.55c0.33,0.02,4.14-0.22,4.14-0.22
		c0.39-0.61,0.16-1.43,0.05-2.1c-0.43-2.76-0.75-5.6-1.09-8.43c-0.18-1.46-0.33-3.29-0.56-4.36c-0.24-1.07-0.22-1.83,0-2.43
		c0.11-0.31,0.58-0.72,1.12-1.15c0.51-0.4,0.89-0.83,1.69-0.83c0.99,0,2.2,0.29,3.19,0.87c1.56,0.92,2.74,2.31,2.8,2.37
		c0.11,0.11,0.23,0.19,0.34,0.01c0.06-0.11,0.96-1.67,2.11-3.35c0.86-1.26,1.96-2.56,2.52-3.6c0-0.17-0.22-0.28-0.33-0.28
		c0,0-2.99,0.3-3.17,0.31c-0.18,0.02-0.77,0.01-0.75-0.31c0.07-1.05-0.39-1.54-0.05-2.31c1.77,0,3.31,0.94,5.07,1.1
		c0.17-0.11,0.33-0.39,0.11-0.5c-1.75-0.49-2.77-0.49-3.09-0.72c-1.96-1.4-1.67-1.83-1.93-2.37c-0.26-0.54-0.32-2.07,0.39-2.65
		c2.05-1.68,6.47-1.34,7.17-1.21c0.7,0.13,3,0.7,3.53,1.21c0.54,0.52,1.16,1.32,1.1,2.26c-0.17,1.88-2.66,2.82-3.75,3.09
		c-1.09,0.27-1.67-0.15-1.71,0.66c0,0.1,0.28,0.17,0.28,0.17c1.88-0.28,4.92-1.38,5.3-1.38c0.37,0,0.67,0.32,0.5,0.72
		c-0.28,0.63,0.27,1.82-0.5,2.26c-1.65-0.17-3.09-0.6-4.74-0.55c-0.6,0.99,0.56,1.58,1,2.37c0.72,1.3,1.23,2.87,1.87,4.03
		c0.37,0.67,0.4,1.15,0.99,1.38c2.17-1.95,3.92-5.82,7.06-4.47c0.88,0.38,2.07,3.38,2.01,5.05c-0.05,1.66,2.26,13.23,2.01,14.42
		c-0.28,1.34-1.95,1.99-3.25,3.15c-1.43,1.27-4.36,3.64-6.67,5.29c0.38,0.38,0.85,0.28,1.43,0.61c1.33,0.73,5.01,1.27,6.4,2.04
		c1.39,0.77,3.78,1.17,5.46,2.15c0.47,0.28,0.39,1.37,0.39,2.66c0,1.29,0.16,8.05,0.87,12.56c0.71,4.51,0.72,7.5,0.66,11.09
		c0,0,0.04,2.53,0.22,4.47C365.05,86.88,365.75,92.88,365.81,98.57 M349.15,97.13c-0.01,0-1.11-0.05-1.65,0.17
		c0,0.53,0.16,1.15,0.15,1.83c-0.01,1.08-0.12,1.83-0.09,2c0.05,0.28,0.16,0.22,0.16,0.22c0.3-0.53,0.5-0.57,0.64-0.92
		c0.34-0.84,0.47-1.68,0.66-2.2c0.07-0.19,0.26-0.43,0.29-0.5C349.48,97.39,349.43,97.24,349.15,97.13 M352.57,97.57
		c-0.44-0.28-0.98-0.18-1.36-0.24c-0.38-0.06-0.42,0.12-0.46,0.32c-0.06,0.27-0.18,0.72,0,0.87c0.15,0.13,0.22,0.61,0.25,1.11
		c0.03,0.55-0.05,0.94,0.18,1.4c0.33-0.6,0.36-0.75,0.5-1.11c0.23-0.58,0.64-1.11,0.81-1.71C352.54,98.02,352.52,97.78,352.57,97.57
		 M362.78,79.1c0.03-0.17-0.13-0.26-0.28-0.36c-0.15-0.1-0.69-0.24-1.55-0.26c-0.27-0.01-0.57-0.01-0.91,0.01
		c-0.86,0.05-1.76,0.08-2.42,0.06c-0.3-0.01-0.52-0.03-0.63-0.05c-0.33-0.08-0.67-0.11-0.99-0.15c-0.45-0.05-0.88-0.09-1.28-0.25
		c-0.14-0.63-0.04-1.32,0.07-1.99c0.02-0.16,0.05-0.31,0.07-0.45c0.96-4.63,1.45-9.28,1.42-13.46c0-0.25-0.02-0.57-0.03-0.86
		c-0.02-0.39-0.04-0.78-0.02-0.9c0.02-0.1,0.06-0.21,0.1-0.33c0.05-0.13,0.1-0.27,0.13-0.42c0.05-0.27,0.06-0.55,0.09-0.82
		c0.01-0.1,0.01-0.21,0.02-0.32c0.01-0.06-0.02-0.12-0.07-0.15c-0.05-0.03-0.11-0.03-0.17,0c-0.05,0.03-0.08,0.06-0.13,0.09
		c0-0.04,0.01-0.08,0.01-0.12c-0.21,0.12-0.41,0.29-0.54,0.51c-0.12,0.19-0.56,1.33-0.74,1.69c-0.44,0.89-0.76,1.54-1.38,2.66
		c-0.62,1.11-1.75,2.06-2.13,2.83c-0.42,0.85-2.22,2.87-3.27,3.57c-0.4,0.27-1.09,1.13-2.11,1.86c-1.61,1.17-3.84,2.42-5.39,3.43
		c-3.54,2.14-7.81,2.9-12.16,2.98c-0.03,0-0.07,0-0.11,0c-0.33,0-0.66,0.01-0.98,0c-0.42,0-0.84-0.01-1.28-0.02
		c-0.03,0-0.06,0-0.08,0c-0.58-0.02-1.17-0.05-1.77-0.09c-1.66-0.16-4.47-1.51-6.51-2.79c-1.25-0.78-2.12-1.42-2.6-1.91
		c-0.09-0.1-0.25-0.2-0.48-0.34c-0.27-0.18-0.61-0.4-0.95-0.69c-0.22-0.19-0.45-0.41-0.67-0.62c-0.43-0.41-0.87-0.84-1.3-1.08
		c-0.06-0.03-0.13-0.03-0.18,0.01c0,0-0.01,0.01-0.01,0.01c-0.03-0.02-0.06-0.04-0.08-0.05c0.01,0.04,0.03,0.08,0.04,0.12
		c-0.01,0.03-0.01,0.06,0,0.09c0.18,0.64,0.88,1.57,1.75,2.33c0.54,0.47,1.1,0.84,1.6,1.17c0.52,0.35,0.97,0.65,1.15,0.91
		c0.4,0.59,4.51,3.37,8.02,4.1c1.28,0.26,2.84,0.4,4.52,0.4c2.05,0,3.82-0.21,4.25-0.36c0.7-0.23,2.22-0.68,3.57-0.99
		c1.38-0.31,4.46-1.62,6.49-2.88c0.38-0.19,1.1-0.66,1.73-1.07c0.49-0.32,0.95-0.62,1.13-0.71c0.46-0.23,3.9-3.07,5.13-4.43
		c0.13-0.14,3.1-3.4,3.57-4.91c0.16-0.51,0.58-1.02,0.75-1.05c0.04,0.01,0.09,0.11,0.12,0.25c0.02,0.15,0.02,0.31,0,0.42
		c-0.38,1.88-1.14,8.25-1.61,10.01c-0.09,0.32,0.13,1.12-0.02,1.48c-0.29,0.73-0.14,1.69-0.47,2.47c-0.16,0.41-0.42,0.54-0.72,0.56
		c-0.16-0.01-0.32-0.04-0.48-0.08c-0.2-0.04-0.41-0.09-0.6-0.09c-0.01,0-0.02,0-0.03,0c-0.27-0.03-0.5,0-0.65,0.2
		c-0.11,0.16-0.13,0.34-0.07,0.43c-0.01,0.08,0,0.16,0.04,0.23c0.05,0.11,0.15,0.17,0.29,0.17h0c0.03,0,0.12-0.01,0.25-0.02
		c0.4-0.04,1.23-0.12,1.96-0.12c0.43,0,0.77,0.03,1,0.08c0.93,0.22,2.24,0.26,3.52,0.29c1.1,0.03,2.13,0.06,2.71,0.21
		c0.23,0.06,0.46,0.09,0.69,0.09c0.53,0,0.95-0.15,1.22-0.24c0.08-0.03,0.15-0.05,0.2-0.06C362.57,79.3,362.75,79.26,362.78,79.1"/>
</g>
</svg>
